# xmcd
#
# Track frame offsets:
#	150
#	17725
#	33280
#	50033
#	63801
#	84074
#	98812
#	114804
#	130454
#	147281
#	162596
#	179253
#	198059
#	220779
#	238887
#	257867
#	269660
#	283132
#	302616
#
# Disc length: 4246 seconds
#
# Revision: 1
# Processed by: cddbd v1.5.2PL0 Copyright (c) Steve Scherf et al.
# Submitted via: audiograbber 1.83.01
#
DISCID=0f109413
DTITLE=Top Hits Monthly  - (THM)
DYEAR=1900
DGENRE=
TTITLE0=Toby Keith - As Good As I Once Was (THM)
TTITLE1=Brooks And Dunn - Play Something Country (THM)
TTITLE2=Tim McGraw - Do You Want Fries With That (THM)
TTITLE3=Danny O'Keefe - Good Time Charlie's Got The Blues (THM)
TTITLE4=Dierks Bentley - Come A Little Closer (THM)
TTITLE5=Joe Nichols - Tequila Makes Her Clothes Fall Off (THM)
TTITLE6=Josh Tuner (THM) - Your Man (THM)
TTITLE7=Dierks Bentley - How Am I Doin'(THM)
TTITLE8=Alabama - Old Flame (THM)
TTITLE9=Blake Shelton - Goodbye Time (THM)
TTITLE10=Ricky Skaggs - Honey Open That Dorr (THM)
TTITLE11=Alabama - Close Enough To Perfect (THM)
TTITLE12=Earl Thomas Conley - I Can't Win For Losin' (THM)
TTITLE13=Brooks And Dunn - Neon Moon (THM)
TTITLE14=Billy Currington - Must Be Doin' Somthing Right (THM)
TTITLE15=Blake Shelton - No Body But Me (THM)
TTITLE16=Toby Keith - Big Blue Note (THM)
TTITLE17=Cledus T Judd - I Love Nascar (THM)
TTITLE18=Phil Vassar - I Take That As A Yes (the hot tub song) (THM)
EXTD=
EXTT0=
EXTT1=
EXTT2=
EXTT3=
EXTT4=
EXTT5=
EXTT6=
EXTT7=
EXTT8=
EXTT9=
EXTT10=
EXTT11=
EXTT12=
EXTT13=
EXTT14=
EXTT15=
EXTT16=
EXTT17=
EXTT18=
PLAYORDER=
